<?xml version="1.0" encoding="UTF-8"?>
<svg version="1.1" viewBox="0 0 470.77 690.05" xml:space="preserve" xmlns="http://www.w3.org/2000/svg" xmlns:cc="http://creativecommons.org/ns#" xmlns:dc="http://purl.org/dc/elements/1.1/" xmlns:rdf="http://www.w3.org/1999/02/22-rdf-syntax-ns#"><metadata><rdf:RDF><cc:Work rdf:about=""><dc:format>image/svg+xml</dc:format><dc:type rdf:resource="http://purl.org/dc/dcmitype/StillImage"/><dc:title/></cc:Work></rdf:RDF></metadata><g transform="matrix(1.3333 0 0 -1.3333 -93.896 722.34)"><g transform="scale(.1)"><path d="m3517 3694.8s-19.6-55.31-20.83-85.31-0.29-60 69.09-73.13c69.38-13.12 89.06 12.2 90.94 64.7 1.87 52.49 0 82.49 0 82.49l-139.2 11.25" fill="#fff"/><path d="m3517 3694.8s-19.6-55.31-20.83-85.31-0.29-60 69.09-73.13c69.38-13.12 89.06 12.2 90.94 64.7 1.87 52.49 0 82.49 0 82.49z" fill="none" stroke="#100f0d" stroke-linecap="round" stroke-linejoin="round" stroke-miterlimit="10" stroke-width="12"/><path d="m3995.6 3775.4s37.48-49.7 58.1-72.19c20.63-22.51 30.95-31.87 53.44-17.8 22.5 14.06 60.01 48.74 38.44 76.86-21.55 28.13-82.52 83.45-82.52 83.45l-67.46-70.32" fill="#fff"/><path d="m3995.6 3775.4s37.48-49.7 58.1-72.19c20.63-22.51 30.95-31.87 53.44-17.8 22.5 14.06 60.01 48.74 38.44 76.86-21.55 28.13-82.52 83.45-82.52 83.45z" fill="none" stroke="#100f0d" stroke-linecap="round" stroke-linejoin="round" stroke-miterlimit="10" stroke-width="12"/><path d="m2301.7 1685.1s-295.47-273.98-528.2-410.98c-232.7-137-498.44-265.74-670.08-325.14-171.66-59.398-381.24-113.88-392.83-297.06-11.546-183.25 262.43-214.59 420.88-211.3 158.47 3.289 417.59 3.289 673.42 57.77 255.82 54.449 338.36 36.339 346.58-13.18 8.26-49.551-90.76-94.133-224.46-125.45-133.7-31.352-282.25-109.76-278.93-111.41 3.28-1.672 104.01 28.89 171.66 49.507 67.65 20.633 196.4 57.75 276.49 87.5 80.01 29.653 146.85 70.973 119.64 143.56-27.25 72.617-231.09 55.289-370.55 49.508-139.46-5.739-319.38-48.66-549.62-37.149-230.23 11.559-390.34 22.301-390.34 137.85 0 115.54 235.21 136.96 357.34 174.93 122.11 37.953 748.5 190.64 1210.6 550.43-52.85 198.08-171.65 280.61-171.65 280.61" fill="#f9b3a9"/><path d="m2301.7 1685.1s-295.47-273.98-528.2-410.98c-232.7-137-498.44-265.74-670.08-325.14-171.66-59.398-381.24-113.88-392.83-297.06-11.546-183.25 262.43-214.59 420.88-211.3 158.47 3.289 417.59 3.289 673.42 57.77 255.82 54.449 338.36 36.339 346.58-13.18 8.26-49.551-90.76-94.133-224.46-125.45-133.7-31.352-282.25-109.76-278.93-111.41 3.28-1.672 104.01 28.89 171.66 49.507 67.65 20.633 196.4 57.75 276.49 87.5 80.01 29.653 146.85 70.973 119.64 143.56-27.25 72.617-231.09 55.289-370.55 49.508-139.46-5.739-319.38-48.66-549.62-37.149-230.23 11.559-390.34 22.301-390.34 137.85 0 115.54 235.21 136.96 357.34 174.93 122.11 37.953 748.5 190.64 1210.6 550.43-52.85 198.08-171.65 280.61-171.65 280.61z" fill="none" stroke="#100f0d" stroke-linecap="round" stroke-linejoin="round" stroke-miterlimit="10" stroke-width="12"/><path d="m3108 4840.7s-103.44 184.4-217.81 305.33c-114.38 120.94-225.95 147.19-263.45 145.31-37.51-1.87 33.75-766.87 33.75-766.87l348.75-290.63s8.77-31.89 8.16-65.63c-28.13-7.5-139.42-48.75-138.48-132.19 0.93-83.44 81.58-135.95 201.58-155.63-19.68-70.32-87.2-216.57-183.78-308.43-96.53-91.9-178.11-131.26-290.61-188.45-112.51-57.19-311.27-235.33-424.68-429.38-113.45-194.09-172.5-389.07-164.09-471.59 8.45-82.49 126.58-74.98 250.34 19.69-37.51-81.56-68.45-236.6-62.19-414.08 6.25-177.5 33.09-458.74 312.5-785.01-101.26-63.74-109.99-117.54-177.51-226.28-67.47-108.76-81.25-203.75-81.25-203.75l229.98 58.782s45.04 21.242 90.04 70.01c45.01 48.74 87.5 101.24 128.75 155 41.26 53.73 147.47 114.95 147.47 114.95s8.77-58.69-8.71-94.98c-17.51-36.27-58.77-60.01-91.26-146.26-8.76-44.99 22.49-108.74 22.49-108.74l145 36.27 35.01 51.22s26.24 71.25 86.23 148.76c59.99 77.52 125.03 116.25 155.03 188.78 30.01 72.5 46.25 278.74-96.25 488.75 16.24 110-5.65 268.16-60.03 481.88 73.14-97.47 133.15-174.38 251.28-174.38 118.1 0 121.85 84.39 103.11 161.27s-67.51 153.74-153.77 215.64c-86.24 61.86-116.23 140.6-116.23 140.6l-260.63 525.04s63.75 224.98 146.24 330c82.51 105 133.15 217.5 354.38 281.25 61.89-78.75 106.89-114.38 204.39-121.87 97.5-7.51 176.26-52.51 245.62-28.13 69.38 24.38 315.02 155.64 316.87 375.01-46.86 189.37-323.72 771.22-323.72 771.22l9.99 615.03s-78.76 42.49-171.24-170.01c-55.01-163.76-65.02-293.73-65.02-293.73s-18.74 41.25-59.99 41.25c-9.7 42.19-43.44 75.93-43.44 75.93s85.31-0.92 108.74 49.68c23.44 50.62-20.62 90.01-109.68 80.63-89.05-9.37-196.89-60-255.66-127.48-58.7-67.5-63.71-107.53-71.22-137.53-6.25 79.99-5 96.28 2.48 167.51 7.51 71.25 30.01 96.26 16.26 97.5-13.72 1.24-107.47-73.75-63.74-351.26" fill="#fff"/><path d="m3108 4840.7s-103.44 184.4-217.81 305.33c-114.38 120.94-225.95 147.19-263.45 145.31-37.51-1.87 33.75-766.87 33.75-766.87l348.75-290.63s8.77-31.89 8.16-65.63c-28.13-7.5-139.42-48.75-138.48-132.19 0.93-83.44 81.58-135.95 201.58-155.63-19.68-70.32-87.2-216.57-183.78-308.43-96.53-91.9-178.11-131.26-290.61-188.45-112.51-57.19-311.27-235.33-424.68-429.38-113.45-194.09-172.5-389.07-164.09-471.59 8.45-82.49 126.58-74.98 250.34 19.69-37.51-81.56-68.45-236.6-62.19-414.08 6.25-177.5 33.09-458.74 312.5-785.01-101.26-63.74-109.99-117.54-177.51-226.28-67.47-108.76-81.25-203.75-81.25-203.75l229.98 58.782s45.04 21.242 90.04 70.01c45.01 48.74 87.5 101.24 128.75 155 41.26 53.73 147.47 114.95 147.47 114.95s8.77-58.69-8.71-94.98c-17.51-36.27-58.77-60.01-91.26-146.26-8.76-44.99 22.49-108.74 22.49-108.74l145 36.27 35.01 51.22s26.24 71.25 86.23 148.76c59.99 77.52 125.03 116.25 155.03 188.78 30.01 72.5 46.25 278.74-96.25 488.75 16.24 110-5.65 268.16-60.03 481.88 73.14-97.47 133.15-174.38 251.28-174.38 118.1 0 121.85 84.39 103.11 161.27s-67.51 153.74-153.77 215.64c-86.24 61.86-116.23 140.6-116.23 140.6l-260.63 525.04s63.75 224.98 146.24 330c82.51 105 133.15 217.5 354.38 281.25 61.89-78.75 106.89-114.38 204.39-121.87 97.5-7.51 176.26-52.51 245.62-28.13 69.38 24.38 315.02 155.64 316.87 375.01-46.86 189.37-323.72 771.22-323.72 771.22l9.99 615.03s-78.76 42.49-171.24-170.01c-55.01-163.76-65.02-293.73-65.02-293.73s-18.74 41.25-59.99 41.25c-9.7 42.19-43.44 75.93-43.44 75.93s85.31-0.92 108.74 49.68c23.44 50.62-20.62 90.01-109.68 80.63-89.05-9.37-196.89-60-255.66-127.48-58.7-67.5-63.71-107.53-71.22-137.53-6.25 79.99-5 96.28 2.48 167.51 7.51 71.25 30.01 96.26 16.26 97.5-13.72 1.24-107.47-73.75-63.74-351.26z" fill="none" stroke="#100f0d" stroke-linecap="round" stroke-linejoin="round" stroke-miterlimit="10" stroke-width="12"/><path d="m3423 5059.5c37.61 0 143.72-1.23 148.75-48.75 5.02-47.46-91.23-34.97-118.74-34.97s-129.98-5.02-133.75 31.23c-3.75 36.26 82.5 52.49 103.74 52.49" fill="#fff"/><path d="m3423 5059.5c37.61 0 143.72-1.23 148.75-48.75 5.02-47.46-91.23-34.97-118.74-34.97s-129.98-5.02-133.75 31.23c-3.75 36.26 82.5 52.49 103.74 52.49z" fill="none" stroke="#100f0d" stroke-linecap="round" stroke-linejoin="round" stroke-miterlimit="10" stroke-width="12"/><path d="m2761.8 4689.5s84.39-116.25 185.64-106.86c101.25 9.38 61.87 178.12 7.49 279.37-54.36 101.25-157.5 292.49-206.24 358.11-48.75 65.63-144.39 133.14-230.63 101.26-86.26-31.87-176.26-226.88-127.51-494.99 48.74-268.14 208.14-433.13 258.75-485.64 50.64-52.51 170.63-95.64 360.01-106.87-28.13 101.25-76.87 277.5-247.51 455.62" fill="#f9b3a9"/><path d="m2761.8 4689.5s84.39-116.25 185.64-106.86c101.25 9.38 61.87 178.12 7.49 279.37-54.36 101.25-157.5 292.49-206.24 358.11-48.75 65.63-144.39 133.14-230.63 101.26-86.26-31.87-176.26-226.88-127.51-494.99 48.74-268.14 208.14-433.13 258.75-485.64 50.64-52.51 170.63-95.64 360.01-106.87-28.13 101.25-76.87 277.5-247.51 455.62z" fill="none" stroke="#100f0d" stroke-linecap="round" stroke-linejoin="round" stroke-miterlimit="10" stroke-width="12"/><path d="m3163 4779.5s26.26 131.22 48.75 178.72c22.51 47.52 57.48 91.25 123.77 33.75 66.25-57.49 81.26-68.73 81.26-68.73" fill="#fff"/><path d="m3163 4779.5s26.26 131.22 48.75 178.72c22.51 47.52 57.48 91.25 123.77 33.75 66.25-57.49 81.26-68.73 81.26-68.73" fill="none" stroke="#100f0d" stroke-linecap="round" stroke-linejoin="round" stroke-miterlimit="10" stroke-width="12"/><path d="m3446.8 4918.3s37.51 69.99 77.5 67.49c40-2.51 116.25-101.29 147.51-181.28" fill="#fff"/><path d="m3446.8 4918.3s37.51 69.99 77.5 67.49c40-2.51 116.25-101.29 147.51-181.28" fill="none" stroke="#100f0d" stroke-linecap="round" stroke-linejoin="round" stroke-miterlimit="10" stroke-width="12"/><path d="m3703 4724.5s-3.76 171.27-9.35 280.03c-5.65 108.72 40 396.85 126.86 403.73 21.24-0.62 114.98-137.5 158.15-321.25 43.08-183.74 74.97-410.61 0-678.75-67.53-174.37-183.77-204.37-183.77-204.37l-91.89 520.61" fill="#f9b3a9"/><path d="m3703 4724.5s-3.76 171.27-9.35 280.03c-5.65 108.72 40 396.85 126.86 403.73 21.24-0.62 114.98-137.5 158.15-321.25 43.08-183.74 74.97-410.61 0-678.75-67.53-174.37-183.77-204.37-183.77-204.37z" fill="none" stroke="#100f0d" stroke-linecap="round" stroke-linejoin="round" stroke-miterlimit="10" stroke-width="12"/><path d="m3498.6 4676.4s-15.01 208.12 28.14 219.37c43.12 11.26 136.87-80.63 202.5-195.01s86.24-223.11 99.38-313.14c13.11-89.99 13.11-219.36-26.26-249.36-39.39-30-135-24.38-174.38 106.86-39.37 131.28-129.38 431.28-129.38 431.28" fill="#b7e8f5"/><path d="m3498.6 4676.4s-15.01 208.12 28.14 219.37c43.12 11.26 136.87-80.63 202.5-195.01s86.24-223.11 99.38-313.14c13.11-89.99 13.11-219.36-26.26-249.36-39.39-30-135-24.38-174.38 106.86-39.37 131.28-129.38 431.28-129.38 431.28z" fill="none" stroke="#100f0d" stroke-linecap="round" stroke-linejoin="round" stroke-miterlimit="10" stroke-width="12"/><path d="m3651.8 4278.2s-13.06-18.28-23.67-33.31c16.42-54.65 42.65-87.28 70.46-104.81 0.03 0 0.04-0.02 0.07-0.02 65.01-18.15 61.3 49.39 36.91 93.79-24.36 44.35-65.61 56.25-83.77 44.35" fill="#100f0d"/><path d="m3297 4128.6s-101.81 82.72-279.6 39.6" fill="none" stroke="#100f0d" stroke-linecap="round" stroke-linejoin="round" stroke-miterlimit="10" stroke-width="12"/><path d="m3060.8 4069.8s125.61 75.96 275.62-30.93" fill="none" stroke="#100f0d" stroke-linecap="round" stroke-linejoin="round" stroke-miterlimit="10" stroke-width="12"/><path d="m3291.5 4021.1s13.12-135.95 75.92-224.07" fill="none" stroke="#100f0d" stroke-linecap="round" stroke-linejoin="round" stroke-miterlimit="10" stroke-width="12"/><path d="m3080.5 3880.4s108.65-24.38 244.15 0" fill="none" stroke="#100f0d" stroke-linecap="round" stroke-linejoin="round" stroke-miterlimit="10" stroke-width="12"/><path d="m4081.8 4465.4c59.98-19.25 150.92-120.01 147.18-238.14-3.75-118.12-90.93-227.81-197.82-270.94-106.87-43.12-186.57-25.3-208.11 60.03-21.57 85.31 14.06 240.91 52.49 316.87 38.43 75.93 106.88 164.05 206.26 132.18" fill="#d23142"/><path d="m4081.8 4465.4c59.98-19.25 150.92-120.01 147.18-238.14-3.75-118.12-90.93-227.81-197.82-270.94-106.87-43.12-186.57-25.3-208.11 60.03-21.57 85.31 14.06 240.91 52.49 316.87 38.43 75.93 106.88 164.05 206.26 132.18z" fill="none" stroke="#100f0d" stroke-linecap="round" stroke-linejoin="round" stroke-miterlimit="10" stroke-width="12"/><path d="m3983.3 4383.9c37.62-14.4 55.33-95.64 20.63-150-34.67-54.38-85.31-59.06-107.8-52.51-22.51 6.57-47.83 60.93-10.33 137.82 25.44 42.75 65.65 76.88 97.5 64.69" fill="#fff"/><path d="m2684.9 2882s-45.96-79.71-84.38-57.19c-27.19 20.62-16.89 52.48-16.89 52.48s50.64 20.64 76.89 45.03c26.26 24.37 21.56 29.06 0 45-21.58 15.93-68.45 33.74-42.18 104.05 26.25 70.32 98.42 38.45 98.42 38.45s53.44 118.12 103.13 115.32c49.69-2.84 71.26-35.65 83.44-69.39 34.69 30.94 66.55 42.2 98.45 31.87 31.88-10.31 58.13-38.44 69.36-67.5-1.88 60.96 11.26 92.82 59.09 109.7 47.8 16.86 97.47-9.68 126.54-87.38 29.07-77.64 19.7-165.76 19.7-165.76s19.68 18.77 45.01-4.68c25.32-23.45-8.45-74.07-81.58-112.51-73.13-38.45-123.75-78.14-131.9-106.87-8.09-28.77 25.77-105.89 25.77-105.89s-28.22-16-73.24 32.76c-8.13-38.8-49.38-50.63-81.26-29.99-31.87 20.62-48.75 49.96-59.99 119.34-45 35.64-81.58 53.16-143.44 47.52-61.87-5.62-120.95-55.31-120.95-55.31s-21.56 49.69 30.01 120.95" fill="#f9b3a9"/><path d="m2684.9 2882s-45.96-79.71-84.38-57.19c-27.19 20.62-16.89 52.48-16.89 52.48s50.64 20.64 76.89 45.03c26.26 24.37 21.56 29.06 0 45-21.58 15.93-68.45 33.74-42.18 104.05 26.25 70.32 98.42 38.45 98.42 38.45s53.44 118.12 103.13 115.32c49.69-2.84 71.26-35.65 83.44-69.39 34.69 30.94 66.55 42.2 98.45 31.87 31.88-10.31 58.13-38.44 69.36-67.5-1.88 60.96 11.26 92.82 59.09 109.7 47.8 16.86 97.47-9.68 126.54-87.38 29.07-77.64 19.7-165.76 19.7-165.76s19.68 18.77 45.01-4.68c25.32-23.45-8.45-74.07-81.58-112.51-73.13-38.45-123.75-78.14-131.9-106.87-8.09-28.77 25.77-105.89 25.77-105.89s-28.22-16-73.24 32.76c-8.13-38.8-49.38-50.63-81.26-29.99-31.87 20.62-48.75 49.96-59.99 119.34-45 35.64-81.58 53.16-143.44 47.52-61.87-5.62-120.95-55.31-120.95-55.31s-21.56 49.69 30.01 120.95z" fill="none" stroke="#100f0d" stroke-linecap="round" stroke-linejoin="round" stroke-miterlimit="10" stroke-width="12"/><path d="m3071.1 3120.1c24.38-68.44 88.15-119.06 88.15-119.06" fill="none" stroke="#100f0d" stroke-linecap="round" stroke-linejoin="round" stroke-miterlimit="10" stroke-width="12"/><path d="m3276.5 2976.7s-6.56-35.62-59.06-76.87c-52.51-41.26-105.02-90-130.33-125.64-25.29-35.61-62.82-60.94-99.36-43.13-36.58 17.82-68.44 37.8-68.44 37.8" fill="none" stroke="#100f0d" stroke-linecap="round" stroke-linejoin="round" stroke-miterlimit="10" stroke-width="12"/><path d="m2716.8 3109.8s-12.17-50.63 0-105.02c12.21-54.38 53.44-77.8 96.58-52.49" fill="none" stroke="#100f0d" stroke-linecap="round" stroke-linejoin="round" stroke-miterlimit="10" stroke-width="12"/><path d="m3132.7 3026s-16.53-46.49-34.8-70.85c-18.29-24.38-56.74-112.74-105.48-104.18-48.74 8.55-56.25 132.31-30 191.37 26.26 59.06 93.9 73.13 113.03 77.81" fill="none" stroke="#100f0d" stroke-linecap="round" stroke-linejoin="round" stroke-miterlimit="10" stroke-width="12"/><path d="m2903.3 3155.7s-60.94-20.64-89.99-105.01c-29.09-84.36 4.68-114.39 23.42-134.99 18.74-20.62 86.02-28.13 114.28 0" fill="none" stroke="#100f0d" stroke-linecap="round" stroke-linejoin="round" stroke-miterlimit="10" stroke-width="12"/><path d="m2524.9 2993.8s-7.55-32.5-38.76-63.12c-31.25-30.64-58.78-68.13-64.42-103.77" fill="none" stroke="#100f0d" stroke-linecap="round" stroke-linejoin="round" stroke-miterlimit="10" stroke-width="12"/><path d="m2246.8 2812s124.34-10.05 197.46 15c73.12 25.03 113.16 42.5 139.39 50.32" fill="none" stroke="#100f0d" stroke-linecap="round" stroke-linejoin="round" stroke-miterlimit="10" stroke-width="12"/><path d="m2267.7 2502.3s103.12 99.38 183.73 157.5c80.64 58.12 203.45 101.26 203.45 101.26" fill="none" stroke="#100f0d" stroke-linecap="round" stroke-linejoin="round" stroke-miterlimit="10" stroke-width="12"/><path d="m3043 2317.6s-77.16 171.69-105.13 381.18" fill="none" stroke="#100f0d" stroke-linecap="round" stroke-linejoin="round" stroke-miterlimit="10" stroke-width="12"/><path d="m2823.6 1841.3s138.75-191.25 127.49-346.88c-11.24-155.65-50.61-161.91-95.64-222.56" fill="none" stroke="#100f0d" stroke-linecap="round" stroke-linejoin="round" stroke-miterlimit="10" stroke-width="12"/><path d="m3103 1835.7s-34.35-221.24-151.25-322.49" fill="none" stroke="#100f0d" stroke-linecap="round" stroke-linejoin="round" stroke-miterlimit="10" stroke-width="12"/><path d="m2573.3 1235.7s-30.91 38.33-55.31 67.5" fill="none" stroke="#100f0d" stroke-linecap="round" stroke-linejoin="round" stroke-miterlimit="10" stroke-width="12"/><path d="m2755.5 1030.6s-38.77-91.209-26.56-178.41c177.17-49.691 496.86-12.183 585.91-12.183 89.09 0 278.47-14.047 296.28 44.07 57.19-14.059 152.82-12.199 162.18 30.93 26.26 4.683 41.25 76.863-10.32 140.64-51.55 63.74-168.73 141.57-311.24 86.24-142.5-55.33-277.49-135.03-348.74-166.88-71.26-31.887-119.08-53.45-135.95-25.317-16.88 28.129-6.43 66.328-6.43 66.328s-32.96-11.01-50.77-34.441c8.45 60.931 31.86 131.25 0 135.94-31.88 4.67-102.3-105.74-119.06-146.26-20.63 18.742-35.3 59.341-35.3 59.341" fill="#f9b3a9"/><path d="m2755.5 1030.6s-38.77-91.209-26.56-178.41c177.17-49.691 496.86-12.183 585.91-12.183 89.09 0 278.47-14.047 296.28 44.07 57.19-14.059 152.82-12.199 162.18 30.93 26.26 4.683 41.25 76.863-10.32 140.64-51.55 63.74-168.73 141.57-311.24 86.24-142.5-55.33-277.49-135.03-348.74-166.88-71.26-31.887-119.08-53.45-135.95-25.317-16.88 28.129-6.43 66.328-6.43 66.328s-32.96-11.01-50.77-34.441c8.45 60.931 31.86 131.25 0 135.94-31.88 4.67-102.3-105.74-119.06-146.26-20.63 18.742-35.3 59.341-35.3 59.341z" fill="none" stroke="#100f0d" stroke-linecap="round" stroke-linejoin="round" stroke-miterlimit="10" stroke-width="12"/><path d="m3368 1061.9s213.73 29.37 243.11-177.8" fill="none" stroke="#100f0d" stroke-linecap="round" stroke-linejoin="round" stroke-miterlimit="10" stroke-width="12"/><path d="m3575.5 1101.9s184.38-18.75 197.79-186.85" fill="none" stroke="#100f0d" stroke-linecap="round" stroke-linejoin="round" stroke-miterlimit="10" stroke-width="12"/><path d="m2259.2 873.15s147.19 96.403 162.19 93.543c14.99-2.902 46.88-21.652 0-70.371 31.84 26.41 81.25 63.739 67.79 35.61-13.42-28.129-69.67-77.821-8.74-105.01 60.96-27.172 117.19-16.863 209.09 25.32 91.86 42.199 189.36 66.559 300.95 60.949 111.55-5.632 235.29-30.132 280.29-101.33 44.99-71.179 34.7-105.89-41.25-105.89-37.49-29.047-110.61-35.598-159.38-17.797 0 0 47.83-75-134.05-67.512-155.65 4.699-144.39 60.031-303.75 76.899-159.38 16.863-268.14 2.8-324.4-0.938-56.25-3.762-131.25-11.262-116.25 53.418 15 64.703 38.45 82.191 67.51 123.11" fill="#f9b3a9"/><path d="m2259.2 873.15s147.19 96.403 162.19 93.543c14.99-2.902 46.88-21.652 0-70.371 31.84 26.41 81.25 63.739 67.79 35.61-13.42-28.129-69.67-77.821-8.74-105.01 60.96-27.172 117.19-16.863 209.09 25.32 91.86 42.199 189.36 66.559 300.95 60.949 111.55-5.632 235.29-30.132 280.29-101.33 44.99-71.179 34.7-105.89-41.25-105.89-37.49-29.047-110.61-35.598-159.38-17.797 0 0 47.83-75-134.05-67.512-155.65 4.699-144.39 60.031-303.75 76.899-159.38 16.863-268.14 2.8-324.4-0.938-56.25-3.762-131.25-11.262-116.25 53.418 15 64.703 38.45 82.191 67.51 123.11z" fill="none" stroke="#100f0d" stroke-linecap="round" stroke-linejoin="round" stroke-miterlimit="10" stroke-width="12"/><path d="m2878 843.16s175.6-57.48 192.19-154.99" fill="none" stroke="#100f0d" stroke-linecap="round" stroke-linejoin="round" stroke-miterlimit="10" stroke-width="12"/><path d="m3159.3 856.93s99.35-58.121 70.29-150.96" fill="none" stroke="#100f0d" stroke-linecap="round" stroke-linejoin="round" stroke-miterlimit="10" stroke-width="12"/><path d="m3146.2 4475.7c-22.1 149.78 5.62 343.15 114.37 371.27 108.74 28.13 226.87-129.38 298.12-247.51 71.25-118.12 118.13-266.24 71.25-395.62-46.87-129.37-123.73-187.49-189.38-187.49-65.61 0-204.37 164.98-245.62 290.62-41.26 125.63-31.88 54.38-48.74 168.73" fill="#b7e8f5"/><path d="m3146.2 4475.7c-22.1 149.78 5.62 343.15 114.37 371.27 108.74 28.13 226.87-129.38 298.12-247.51 71.25-118.12 118.13-266.24 71.25-395.62-46.87-129.37-123.73-187.49-189.38-187.49-65.61 0-204.37 164.98-245.62 290.62-41.26 125.63-31.88 54.38-48.74 168.73z" fill="none" stroke="#100f0d" stroke-linecap="round" stroke-linejoin="round" stroke-miterlimit="10" stroke-width="12"/><path d="m3637 4226.5c0.73 25.25-4.76 48.08-16.47 54.28-17.84 9.37-58.13-20.62-83.45-74.07-25.32-53.44-26.26-104.06-5.64-113.44 20.64-9.39 45.97 10.31 45.97 10.31 0.3 0.05 0.57 0.27 0.85 0.35 19.23 26.9 36.99 59.57 51.62 99.97 2.72 7.44 5.04 15 7.12 22.6" fill="#100f0d"/></g></g></svg>
